<svg xmlns="http://www.w3.org/2000/svg" xmlns:xlink="http://www.w3.org/1999/xlink" width="211" zoomAndPan="magnify" viewBox="0 0 158.25 50.999998" height="68" preserveAspectRatio="xMidYMid meet" version="1.0"><defs><clipPath id="1f314fe3ae"><path d="M 0 0.121094 L 41 0.121094 L 41 47 L 0 47 Z M 0 0.121094 " clip-rule="nonzero"/></clipPath><clipPath id="54a2e9ead1"><path d="M 126 10 L 157.503906 10 L 157.503906 47 L 126 47 Z M 126 10 " clip-rule="nonzero"/></clipPath><clipPath id="809080cc0d"><path d="M 45 11 L 80 11 L 80 50.878906 L 45 50.878906 Z M 45 11 " clip-rule="nonzero"/></clipPath></defs><g clip-path="url(#1f314fe3ae)"><path fill="#ffffff" d="M 15.359375 25.984375 L 6.972656 34.558594 L 6.972656 46.59375 L 0.375 46.59375 L 0.375 0.121094 L 6.972656 0.121094 L 6.972656 26.121094 L 31.992188 0.121094 L 39.554688 0.121094 L 19.894531 21.003906 L 40.929688 46.59375 L 33.230469 46.59375 Z M 15.359375 25.984375 " fill-opacity="1" fill-rule="nonzero"/></g><path fill="#ffffff" d="M 89.042969 42.859375 L 91.65625 37.878906 C 94.679688 39.953125 99.355469 41.476562 103.894531 41.476562 C 109.804688 41.476562 112.140625 39.675781 112.140625 36.632812 C 112.140625 28.75 90.007812 35.527344 90.007812 21.558594 C 90.007812 15.195312 95.644531 11.046875 104.578125 11.046875 C 109.117188 11.046875 114.339844 12.292969 117.363281 14.226562 L 114.617188 19.207031 C 111.453125 17.132812 108.015625 16.441406 104.578125 16.441406 C 99.082031 16.441406 96.332031 18.515625 96.332031 21.28125 C 96.332031 29.582031 118.464844 22.804688 118.464844 36.496094 C 118.464844 42.859375 112.691406 46.867188 103.34375 46.867188 C 97.707031 47.007812 91.933594 45.210938 89.042969 42.859375 Z M 89.042969 42.859375 " fill-opacity="1" fill-rule="nonzero"/><g clip-path="url(#54a2e9ead1)"><path fill="#ffffff" d="M 157.371094 25.292969 L 157.371094 46.59375 L 151.320312 46.59375 L 151.320312 41.890625 C 149.257812 45.070312 145.273438 46.867188 139.773438 46.867188 C 131.800781 46.867188 126.851562 42.582031 126.851562 36.496094 C 126.851562 30.824219 130.425781 26.261719 140.875 26.261719 L 150.910156 26.261719 L 150.910156 25.015625 C 150.910156 19.621094 147.746094 16.578125 141.5625 16.578125 C 137.4375 16.578125 133.175781 18.101562 130.425781 20.3125 L 127.8125 15.472656 C 131.386719 12.566406 136.613281 10.910156 142.25 10.910156 C 152.007812 11.046875 157.371094 15.75 157.371094 25.292969 Z M 151.046875 35.804688 L 151.046875 30.824219 L 141.285156 30.824219 C 134.960938 30.824219 133.175781 33.316406 133.175781 36.21875 C 133.175781 39.675781 136.0625 41.890625 140.875 41.890625 C 145.683594 42.027344 149.535156 39.953125 151.046875 35.804688 Z M 151.046875 35.804688 " fill-opacity="1" fill-rule="nonzero"/></g><path fill="#ffffff" d="M 68.699219 37.324219 L 68.699219 46.730469 L 72.683594 44.378906 L 72.683594 34.972656 Z M 68.699219 37.324219 " fill-opacity="1" fill-rule="nonzero"/><g clip-path="url(#809080cc0d)"><path fill="#ffffff" d="M 79.695312 25.847656 L 63.335938 16.300781 L 54.261719 11.046875 L 45.328125 26.675781 L 45.464844 41.335938 L 61.6875 50.878906 L 63.335938 49.910156 L 63.335938 36.082031 L 70.625 23.21875 L 78.046875 27.503906 L 78.046875 41.335938 L 79.695312 40.367188 Z M 79.695312 25.847656 " fill-opacity="1" fill-rule="nonzero"/></g></svg>